<svg id="visual" viewBox="0 0 900 600" width="900" height="600" xmlns="http://www.w3.org/2000/svg" xmlns:xlink="http://www.w3.org/1999/xlink" version="1.1"><path d="M0 121L100 91L200 91L300 49L400 79L500 109L600 91L700 85L800 79L900 115L900 0L800 0L700 0L600 0L500 0L400 0L300 0L200 0L100 0L0 0Z" fill="#98d3fa"></path><path d="M0 295L100 295L200 181L300 223L400 265L500 265L600 289L700 241L800 181L900 211L900 113L800 77L700 83L600 89L500 107L400 77L300 47L200 89L100 89L0 119Z" fill="#7bc4f9"></path><path d="M0 355L100 361L200 295L300 301L400 403L500 415L600 391L700 319L800 295L900 295L900 209L800 179L700 239L600 287L500 263L400 263L300 221L200 179L100 293L0 293Z" fill="#5eb5f8"></path><path d="M0 541L100 517L200 565L300 541L400 565L500 547L600 541L700 565L800 523L900 541L900 293L800 293L700 317L600 389L500 413L400 401L300 299L200 293L100 359L0 353Z" fill="#3ea5f6"></path><path d="M0 601L100 601L200 601L300 601L400 601L500 601L600 601L700 601L800 601L900 601L900 539L800 521L700 563L600 539L500 545L400 563L300 539L200 563L100 515L0 539Z" fill="#1095f4"></path></svg>